<svg width="1280" height="720" viewBox="0 0 1280 720" fill="none" xmlns="http://www.w3.org/2000/svg">
  <rect width="1280" height="720" rx="24" fill="#0f0f0f"/>
  <circle cx="220" cy="120" r="220" fill="#00f0ff" fill-opacity="0.15"/>
  <circle cx="1060" cy="620" r="280" fill="#7b2ff7" fill-opacity="0.2"/>
  <circle cx="760" cy="130" r="180" fill="#00ff9d" fill-opacity="0.12"/>
  <rect x="80" y="90" width="1120" height="540" rx="22" fill="#111111" stroke="#2A2A2A"/>
  <text x="130" y="210" fill="#00f0ff" font-size="26" font-family="Arial, sans-serif" font-weight="700">FABIANO SILVA</text>
  <text x="130" y="252" fill="#EAEAEA" font-size="52" font-family="Arial, sans-serif" font-weight="800">QA Engineer &amp; Front-End Developer</text>
  <rect x="130" y="302" width="220" height="52" rx="26" fill="url(#g1)"/>
  <text x="170" y="335" fill="#0f0f0f" font-size="18" font-family="Arial, sans-serif" font-weight="700">View Projects</text>
  <rect x="370" y="302" width="220" height="52" rx="26" fill="#1A1A1A" stroke="#00f0ff"/>
  <text x="420" y="335" fill="#EAEAEA" font-size="18" font-family="Arial, sans-serif" font-weight="700">Download CV</text>
  <rect x="130" y="390" width="460" height="170" rx="20" fill="#151515" stroke="#2f2f2f"/>
  <text x="160" y="440" fill="#00ff9d" font-size="22" font-family="Arial, sans-serif" font-weight="700">Premium Futuristic Portfolio</text>
  <text x="160" y="478" fill="#D0D0D0" font-size="18" font-family="Arial, sans-serif">Next.js • TypeScript • Tailwind • Framer Motion • Three.js</text>
  <rect x="670" y="210" width="460" height="300" rx="28" fill="#121212" stroke="#2F2F2F"/>
  <circle cx="900" cy="360" r="98" fill="#7b2ff7" fill-opacity="0.45"/>
  <circle cx="900" cy="360" r="68" fill="#00f0ff" fill-opacity="0.55"/>
  <defs>
    <linearGradient id="g1" x1="130" y1="328" x2="350" y2="328" gradientUnits="userSpaceOnUse">
      <stop stop-color="#00f0ff"/>
      <stop offset="1" stop-color="#7b2ff7"/>
    </linearGradient>
  </defs>
</svg>
